<svg xmlns="http://www.w3.org/2000/svg" viewBox="0 0 800 500">
  <!-- 背景 -->
  <rect width="800" height="500" fill="#2d3239" />
  
  <!-- Obsidian風インターフェース -->
  <rect x="10" y="10" width="200" height="480" fill="#1e2228" />
  <rect x="220" y="10" width="570" height="480" fill="#262a30" />
  
  <!-- サイドバーのファイル -->
  <rect x="20" y="40" width="180" height="20" fill="#3d434a" rx="3" />
  <rect x="20" y="70" width="180" height="20" fill="#3d434a" rx="3" />
  <rect x="20" y="100" width="180" height="20" fill="#3d434a" rx="3" />
  <rect x="20" y="130" width="180" height="20" fill="#6877fa" rx="3" />
  <rect x="20" y="160" width="180" height="20" fill="#3d434a" rx="3" />
  
  <!-- メインエディタ -->
  <text x="240" y="40" fill="#ddd" font-family="Arial" font-size="16" font-weight="bold">プログラミング言語の比較</text>
  <text x="240" y="70" fill="#bbb" font-family="Arial" font-size="14">プログラミング言語の特徴や使用例について解説します。</text>
  <line x1="240" y1="80" x2="760" y2="80" stroke="#444" />
  
  <!-- Crosslinkerモーダルウィンドウ -->
  <rect x="170" y="100" width="460" height="300" fill="#2a2e34" rx="5" stroke="#444" />
  <rect x="170" y="100" width="460" height="40" fill="#323840" rx="5" />
  <text x="400" y="125" fill="#eee" font-family="Arial" font-size="16" text-anchor="middle">関連ノート</text>
  
  <!-- 関連ノートリスト -->
  <rect x="190" y="160" width="420" height="50" fill="#363c44" rx="3" />
  <text x="210" y="185" fill="#ddd" font-family="Arial" font-size="14">JavaScript入門</text>
  <text x="210" y="205" fill="#999" font-family="Arial" font-size="12">スコア: 0.87 (タイトル一致)</text>
  <rect x="500" y="175" width="90" height="25" fill="#6877fa" rx="3" />
  <text x="545" y="192" fill="#fff" font-family="Arial" font-size="12" text-anchor="middle">プレビュー</text>
  <rect x="160" y="175" width="20" height="20" fill="none" stroke="#6877fa" stroke-width="2" rx="2" />
  
  <rect x="190" y="220" width="420" height="50" fill="#363c44" rx="3" />
  <text x="210" y="245" fill="#ddd" font-family="Arial" font-size="14">Pythonプログラミング</text>
  <text x="210" y="265" fill="#999" font-family="Arial" font-size="12">スコア: 0.76 (内容類似)</text>
  <rect x="500" y="235" width="90" height="25" fill="#6877fa" rx="3" />
  <text x="545" y="252" fill="#fff" font-family="Arial" font-size="12" text-anchor="middle">プレビュー</text>
  <rect x="160" y="235" width="20" height="20" fill="none" stroke="#6877fa" stroke-width="2" rx="2" />
  
  <rect x="190" y="280" width="420" height="50" fill="#363c44" rx="3" />
  <text x="210" y="305" fill="#ddd" font-family="Arial" font-size="14">データサイエンス入門</text>
  <text x="210" y="325" fill="#999" font-family="Arial" font-size="12">スコア: 0.65 (タグ一致)</text>
  <rect x="500" y="295" width="90" height="25" fill="#6877fa" rx="3" />
  <text x="545" y="312" fill="#fff" font-family="Arial" font-size="12" text-anchor="middle">プレビュー</text>
  <rect x="160" y="295" width="20" height="20" fill="none" stroke="#6877fa" stroke-width="2" rx="2" />
  
  <!-- ボタンエリア -->
  <rect x="430" y="350" width="180" height="30" fill="#6877fa" rx="3" />
  <text x="520" y="370" fill="#fff" font-family="Arial" font-size="14" text-anchor="middle">選択したノートをリンク</text>
  
  <rect x="320" y="350" width="100" height="30" fill="#3d434a" rx="3" />
  <text x="370" y="370" fill="#ddd" font-family="Arial" font-size="14" text-anchor="middle">キャンセル</text>
  
  <!-- Crosslinkerのロゴとアイコン -->
  <circle cx="220" cy="125" r="15" fill="#6877fa" />
  <path d="M215 125 L225 125 M220 120 L220 130 M213 118 L227 132 M213 132 L227 118" stroke="#fff" stroke-width="2" />
</svg>
